# Blender v2.76 (sub 0) OBJ File: 'Bower5Export2.blend'
# www.blender.org
mtllib BowerCol.mtl
o BowerCol_Plane.003
v -1.064547 -0.485232 -6.121755
v -2.202203 -0.485854 -5.186503
v -0.987596 -0.484729 6.254180
v -2.007812 -0.483658 4.882203
v 5.275021 -0.500225 1.859171
v 5.209840 -0.485994 -2.327925
v 3.819060 -0.487988 -2.492471
v 3.607048 -0.512814 2.104127
v 2.374554 -0.495660 4.036483
v 3.266603 -0.490963 4.455466
v 3.276458 -0.484619 -5.043958
v 2.554141 -0.483999 -4.201470
v -1.000764 1.612979 -4.456164
v -1.733424 1.608651 -3.494927
v -0.900779 1.620080 4.715751
v -1.591663 1.622557 3.534470
v 3.803098 1.549517 1.360667
v 3.828091 1.582139 -1.862219
v 2.629182 1.540292 -1.813683
v 2.444797 1.511292 1.474434
v 1.563429 1.557235 2.898907
v 2.294495 1.577662 3.376375
v 2.368278 1.610163 -3.800244
v 1.736785 1.569335 -2.916888
v -0.253121 4.362772 -1.017835
v -0.370499 4.356424 -0.064151
v -0.247769 4.377562 1.006545
v 0.843753 4.318990 0.240526
v 0.828910 4.318052 -0.453471
v 0.473245 4.336416 0.651942
v 0.496624 4.332515 -0.867381
v 0.439347 2.669628 -1.276103
v -1.185776 2.749603 -1.568948
v 2.582462 2.747171 0.953371
v 1.430688 2.791940 2.309174
v -0.810594 2.880154 3.425437
v -0.846866 2.838190 -2.988635
v 2.571145 2.771294 -1.325488
v -1.126594 2.768455 1.619230
v 0.363196 2.685249 1.310609
v 0.855787 2.647301 -0.782586
v 1.531434 2.813617 -2.617096
v 0.782022 2.655562 0.666969
vn -0.001100 -1.000000 0.003200
vn 0.000200 -1.000000 -0.001400
vn 0.004700 -1.000000 -0.004400
vn 0.006100 -0.999900 0.010200
vn 0.000200 -1.000000 0.000200
vn -0.835900 0.530900 -0.139500
vn 0.509800 0.754900 0.412600
vn 0.307000 0.776700 0.549900
vn 0.667300 0.744800 -0.000100
vn 0.667900 0.565900 -0.483400
vn -0.748300 0.433500 0.502100
vn -0.717400 -0.538700 -0.441700
vn 0.178100 0.584900 -0.791300
vn -0.864200 -0.501000 -0.046900
vn -0.154000 -0.584500 0.796600
vn 0.652300 0.575900 0.492800
vn 0.327000 0.550900 0.767800
vn -0.597100 0.546200 -0.587400
vn 0.821900 0.569600 -0.000900
vn -0.170100 -0.517300 -0.838700
vn -0.658500 -0.563700 0.498600
vn 0.502000 0.777900 -0.377900
vn 0.031300 0.999500 -0.002000
vn 0.117100 0.775400 -0.620500
vn 0.040100 0.999000 -0.019300
vn -0.549200 -0.835000 -0.033600
vn 0.120400 0.747200 -0.653600
vn -0.459200 -0.850200 -0.257600
vn -0.811500 0.526100 0.254300
vn 0.531600 0.749200 -0.395100
vn -0.382900 -0.878500 0.285600
vn -0.132700 -0.843900 -0.519900
vn -0.107600 -0.851800 0.512700
vn 0.694000 0.719900 0.009200
vn 0.305900 0.705100 0.639700
vn 0.546800 0.726700 0.415800
vn -0.712800 0.635800 -0.296000
vn -0.061500 -0.998100 0.003600
vn -0.052300 -0.998600 0.005800
vn -0.854900 0.507600 0.106900
vn -0.896900 0.441900 0.014000
vn 0.036300 0.999300 0.009500
usemtl None
s off
f 10//1 3//1 4//1 9//1
f 11//2 6//2 7//2 12//2
f 6//3 5//3 8//3 7//3
f 5//4 10//4 9//4 8//4
f 1//5 11//5 12//5 2//5
f 37//6 33//6 26//6 25//6
f 35//7 34//7 28//7 30//7
f 36//8 35//8 30//8 27//8
f 34//9 38//9 29//9 28//9
f 6//10 11//10 23//10 18//10
f 4//11 3//11 15//11 16//11
f 8//12 9//12 21//12 20//12
f 11//13 1//13 13//13 23//13
f 7//14 8//14 20//14 19//14
f 2//15 12//15 24//15 14//15
f 10//16 5//16 17//16 22//16
f 3//17 10//17 22//17 15//17
f 1//18 2//18 14//18 13//18
f 5//19 6//19 18//19 17//19
f 9//20 4//20 16//20 21//20
f 12//21 7//21 19//21 24//21
f 38//22 42//22 31//22 29//22
f 29//23 26//23 28//23
f 42//24 37//24 25//24 31//24
f 30//25 28//25 26//25 27//25
f 19//26 20//26 43//26 41//26
f 23//27 13//27 37//27 42//27
f 20//28 21//28 40//28 43//28
f 16//29 15//29 36//29 39//29
f 18//30 23//30 42//30 38//30
f 24//31 19//31 41//31 32//31
f 21//32 16//32 39//32 40//32
f 14//33 24//33 32//33 33//33
f 17//34 18//34 38//34 34//34
f 15//35 22//35 35//35 36//35
f 22//36 17//36 34//36 35//36
f 13//37 14//37 33//37 37//37
f 41//38 43//38 40//38 32//38
f 33//39 32//39 40//39 39//39
f 39//40 36//40 27//40 26//40
f 39//41 26//41 33//41
f 25//42 26//42 29//42 31//42
